<svg width="16" height="16" viewBox="0 0 16 16" fill="none" xmlns="http://www.w3.org/2000/svg">
<path fill-rule="evenodd" clip-rule="evenodd" d="M13.3632 3.32235C13.426 3.37005 13.4788 3.42968 13.5186 3.49781C13.5583 3.56595 13.5843 3.64126 13.5949 3.71943C13.6055 3.7976 13.6006 3.8771 13.5805 3.95338C13.5604 4.02965 13.5254 4.10121 13.4776 4.16395L7.07755 12.564C7.02564 12.632 6.95977 12.6881 6.88437 12.7286C6.80896 12.7691 6.72577 12.793 6.64037 12.7987C6.55498 12.8044 6.46936 12.7917 6.38925 12.7616C6.30915 12.7314 6.23642 12.6845 6.17595 12.624L2.57595 9.02395C2.46997 8.91021 2.41227 8.75978 2.41501 8.60434C2.41775 8.44889 2.48072 8.30059 2.59065 8.19066C2.70058 8.08073 2.84889 8.01776 3.00433 8.01501C3.15977 8.01227 3.31021 8.06997 3.42395 8.17595L6.53915 11.2904L12.5232 3.43675C12.6195 3.31032 12.762 3.22726 12.9195 3.20581C13.077 3.18436 13.2365 3.22628 13.3632 3.32235Z" fill="#008236"/>
</svg>
