<svg width="16" height="16" viewBox="0 0 16 16" fill="none" xmlns="http://www.w3.org/2000/svg">
<path fill-rule="evenodd" clip-rule="evenodd" d="M6.26768 2.00196C7.03746 0.668618 8.9626 0.668618 9.73238 2.00196L14.6351 10.5008C15.404 11.834 14.4416 13.5 12.9034 13.5H3.0967C1.55805 13.5 0.595212 11.8343 1.36493 10.5008C1.3649 10.5008 1.36496 10.5007 1.36493 10.5008L6.26768 2.00196ZM7.13371 2.50195L2.23113 11.0005C1.84634 11.667 2.3274 12.5 3.0967 12.5H12.9034C13.6718 12.5 14.1534 11.6672 13.7689 11.0004L8.86635 2.50195C8.48146 1.83529 7.5186 1.83529 7.13371 2.50195ZM8.00003 5.49995C8.27617 5.49995 8.50003 5.72381 8.50003 5.99995V8.49995C8.50003 8.7761 8.27617 8.99995 8.00003 8.99995C7.72389 8.99995 7.50003 8.7761 7.50003 8.49995V5.99995C7.50003 5.72381 7.72389 5.49995 8.00003 5.49995ZM7.50003 10.5C7.50003 10.2238 7.72389 9.99995 8.00003 9.99995H8.0047C8.28084 9.99995 8.5047 10.2238 8.5047 10.5V10.5053C8.5047 10.7814 8.28084 11.0053 8.0047 11.0053H8.00003C7.72389 11.0053 7.50003 10.7814 7.50003 10.5053V10.5Z" fill="#C70036"/>
</svg>
