<svg width="16" height="16" viewBox="0 0 16 16" fill="none" xmlns="http://www.w3.org/2000/svg">
<path fill-rule="evenodd" clip-rule="evenodd" d="M1.58579 3.08579C1.96086 2.71071 2.46957 2.5 3 2.5H13C13.5304 2.5 14.0391 2.71071 14.4142 3.08579C14.7893 3.46086 15 3.96957 15 4.5V4.66194V11.5C15 12.0304 14.7893 12.5391 14.4142 12.9142C14.0391 13.2893 13.5304 13.5 13 13.5H3C2.46957 13.5 1.96086 13.2893 1.58579 12.9142C1.21071 12.5391 1 12.0304 1 11.5V4.66305V4.5C1 3.96957 1.21071 3.46086 1.58579 3.08579ZM2 4.5V4.66267C2 4.66259 2 4.66274 2 4.66267C2.00002 4.83332 2.04371 5.00141 2.12692 5.15041C2.21012 5.29939 2.33006 5.42461 2.47532 5.51414L7.47532 8.59014C7.63301 8.68726 7.8148 8.73883 8 8.73883C8.1852 8.73883 8.36676 8.6874 8.52444 8.59028L13.5244 5.51361C13.6697 5.42408 13.7899 5.29874 13.8731 5.14974C13.9563 5.00075 14 4.83293 14 4.66228C14 4.6622 14 4.66235 14 4.66228V4.5C14 4.23478 13.8946 3.98043 13.7071 3.79289C13.5196 3.60536 13.2652 3.5 13 3.5H3C2.73478 3.5 2.48043 3.60536 2.29289 3.79289C2.10536 3.98043 2 4.23478 2 4.5ZM14 6.39514L9.04889 9.44172C9.04883 9.44176 9.04895 9.44168 9.04889 9.44172C8.73356 9.6359 8.37032 9.73883 8 9.73883C7.62969 9.73883 7.26666 9.63603 6.95134 9.44186C6.95126 9.44182 6.95142 9.44191 6.95134 9.44186L2 6.3958V11.5C2 11.7652 2.10536 12.0196 2.29289 12.2071C2.48043 12.3946 2.73478 12.5 3 12.5H13C13.2652 12.5 13.5196 12.3946 13.7071 12.2071C13.8946 12.0196 14 11.7652 14 11.5V6.39514Z" fill="#A65F00"/>
</svg>
