<svg width="182" height="189" viewBox="0 0 182 189" fill="none" xmlns="http://www.w3.org/2000/svg">
<path d="M122.63 19.1582C138.814 27.9642 155.435 37.6428 167.176 52.7162C178.957 67.7498 185.859 88.1782 177.172 102.061C168.525 115.945 144.249 123.283 129.532 137.206C114.816 151.129 109.659 171.637 97.442 181.196C85.2247 190.756 65.9864 189.368 48.8107 183.219C31.6747 177.071 16.6014 166.202 9.42169 151.843C2.20235 137.523 2.87669 119.713 1.92469 103.093C1.01236 86.4725 -1.52631 71.0422 1.29002 55.1358C4.06669 39.2295 12.1984 22.9265 25.3677 12.7322C38.537 2.53783 56.744 -1.4685 73.7214 0.475167C90.6987 2.41883 106.446 10.3125 122.63 19.1582Z" fill="#FFCCD3"/>
<path fill-rule="evenodd" clip-rule="evenodd" d="M51.6454 92.2059C48.1691 83.3135 48.3676 73.4043 52.1973 64.6582C56.027 55.9122 63.1743 49.0457 72.0667 45.5693C80.9591 42.0929 90.8683 42.2915 99.6144 46.1212C108.36 49.9509 115.227 57.0981 118.703 65.9906L120.16 69.716C124.282 80.2615 132.012 88.3146 141.4 93.0223C141.984 93.3148 142.488 93.7461 142.867 94.2785C143.246 94.8108 143.489 95.428 143.575 96.076C143.66 96.724 143.586 97.3831 143.358 97.9956C143.13 98.6081 142.755 99.1554 142.266 99.5895C135.704 105.419 128.492 110.643 120.683 115.145C121.868 117.626 122.529 120.324 122.625 123.072C122.721 125.82 122.248 128.558 121.238 131.115C120.228 133.672 118.702 135.994 116.754 137.934C114.807 139.875 112.48 141.393 109.919 142.394C107.358 143.395 104.619 143.858 101.871 143.752C99.124 143.647 96.4278 142.977 93.9512 141.783C91.4746 140.588 89.2708 138.897 87.4774 136.813C85.684 134.729 84.3396 132.297 83.5281 129.67C74.8553 131.63 66.0056 132.703 57.1156 132.872C56.4627 132.885 55.8167 132.737 55.234 132.442C54.6512 132.147 54.1496 131.715 53.7727 131.181C53.3959 130.648 53.1554 130.03 53.0722 129.383C52.989 128.735 53.0656 128.077 53.2954 127.465C57.146 117.294 57.077 106.055 53.1019 95.9314L51.6454 92.2059ZM91.2907 127.672C91.8159 129.203 92.6454 130.612 93.7292 131.814C94.813 133.016 96.1287 133.986 97.5973 134.666C99.0658 135.347 100.657 135.723 102.274 135.772C103.892 135.822 105.503 135.543 107.01 134.954C108.518 134.365 109.89 133.477 111.046 132.343C112.201 131.21 113.115 129.854 113.733 128.358C114.35 126.862 114.659 125.257 114.64 123.639C114.622 122.02 114.276 120.423 113.623 118.941C106.456 122.515 98.9815 125.437 91.2907 127.672Z" fill="#C70036"/>
<circle cx="104" cy="52" r="18" fill="#FF2056"/>
<path d="M104.335 58.2216C103.4 58.2216 102.597 57.9848 101.926 57.5114C101.259 57.0341 100.746 56.3466 100.386 55.4489C100.03 54.5473 99.8523 53.4621 99.8523 52.1932C99.8561 50.9242 100.036 49.8447 100.392 48.9545C100.752 48.0606 101.265 47.3788 101.932 46.9091C102.602 46.4394 103.403 46.2045 104.335 46.2045C105.267 46.2045 106.068 46.4394 106.739 46.9091C107.409 47.3788 107.922 48.0606 108.278 48.9545C108.638 49.8485 108.818 50.928 108.818 52.1932C108.818 53.4659 108.638 54.553 108.278 55.4545C107.922 56.3523 107.409 57.0379 106.739 57.5114C106.072 57.9848 105.271 58.2216 104.335 58.2216ZM104.335 56.4432C105.063 56.4432 105.636 56.0852 106.057 55.3693C106.481 54.6496 106.693 53.5909 106.693 52.1932C106.693 51.2689 106.597 50.4924 106.403 49.8636C106.21 49.2348 105.938 48.7614 105.585 48.4432C105.233 48.1212 104.816 47.9602 104.335 47.9602C103.612 47.9602 103.04 48.3201 102.619 49.0398C102.199 49.7557 101.987 50.8068 101.983 52.1932C101.979 53.1212 102.072 53.9015 102.261 54.5341C102.455 55.1667 102.727 55.6439 103.08 55.9659C103.432 56.2841 103.85 56.4432 104.335 56.4432Z" fill="#FFCCD3"/>
</svg>
